<?xml version="1.0" encoding="iso-8859-1"?>
<!-- Uploaded to: SVG Repo, www.svgrepo.com, Generator: SVG Repo Mixer Tools -->
<svg height="800px" width="800px" version="1.1" id="Layer_1" xmlns="http://www.w3.org/2000/svg" xmlns:xlink="http://www.w3.org/1999/xlink" 
	 viewBox="0 0 512 512" xml:space="preserve">
<polygon style="fill:#F4411E;" points="440.429,83.529 501.177,195.604 389.752,256 501.177,316.385 440.429,428.46 319.733,363.04 
	319.733,500.331 192.267,500.331 192.267,363.04 71.571,428.46 10.823,316.385 122.248,256 10.823,195.604 71.571,83.529 
	192.267,148.95 192.267,11.669 319.744,11.669 319.744,148.95 "/>
<path d="M327.716,508.314H184.284V376.446L68.357,439.282L0,313.17l105.493-57.171L0,198.817L68.357,72.706l115.927,62.836V3.686
	h143.443v131.855l115.916-62.835L512,198.818L406.507,256L512,313.171l-68.357,126.111l-115.927-62.836V508.314z M200.25,492.347
	h111.5V349.632l125.465,68.005l53.139-98.037l-117.356-63.599l117.356-63.612l-53.139-98.038L311.76,162.357V19.653H200.25v142.704
	L74.785,94.353L21.646,192.39l117.356,63.612L21.646,319.6l53.139,98.037l125.465-68.005V492.347z"/>
<path d="M253.366,436.592h-15.967c0-15.773,6.898-24.157,12.441-30.894c4.919-5.979,8.804-10.703,8.804-20.752
	c0-10.056-3.886-14.781-8.806-20.763c-5.543-6.737-12.44-15.121-12.44-30.893c0-15.765,6.899-24.145,12.443-30.877
	c4.918-5.973,8.803-10.69,8.803-20.728c0-10.031-3.884-14.747-8.803-20.715c-5.545-6.728-12.443-15.102-12.443-30.857
	c0-15.756,6.901-24.13,12.445-30.857c4.917-5.966,8.801-10.678,8.801-20.703s-3.883-14.738-8.8-20.704
	c-5.546-6.729-12.446-15.105-12.446-30.868c0-15.754,6.899-24.128,12.443-30.856c4.918-5.968,8.803-10.684,8.803-20.716h15.967
	c0,15.763-6.901,24.139-12.446,30.869c-4.916,5.966-8.8,10.679-8.8,20.703c0,10.031,3.884,14.747,8.803,20.715
	c5.544,6.728,12.443,15.102,12.443,30.857c0,15.756-6.901,24.13-12.445,30.857c-4.917,5.966-8.801,10.678-8.801,20.703
	s3.883,14.738,8.8,20.704c5.546,6.729,12.446,15.105,12.446,30.868c0,15.765-6.899,24.145-12.443,30.877
	c-4.918,5.973-8.803,10.69-8.803,20.728c0,10.048,3.884,14.771,8.804,20.75c5.544,6.739,12.442,15.127,12.442,30.906
	c0,15.774-6.898,24.158-12.441,30.896C257.252,421.82,253.366,426.543,253.366,436.592z"/>
</svg>