<?xml version="1.0" ?>
<!-- Uploaded to: SVG Repo, www.svgrepo.com, Generator: SVG Repo Mixer Tools -->
<svg width="800px" height="800px" viewBox="0 0 64 64" xmlns="http://www.w3.org/2000/svg">
<defs>
<style>.cls-1{fill:#aa7b50;}.cls-2{fill:#bb9573;}.cls-3{fill:#fccb7e;}.cls-4{fill:#fdd598;}</style>
</defs>
<title/>
<g data-name="Layer 25" id="Layer_25">
<path class="cls-1" d="M25.931,60.067l-1.6-7.788a1,1,0,0,0-1.26-.758l-7.72,2.256a1,1,0,0,0-.612,1.409,59.433,59.433,0,0,0,4.437,7.477A3.134,3.134,0,0,0,21.74,64h1.1a3.117,3.117,0,0,0,2.418-1.16A3.317,3.317,0,0,0,25.931,60.067Z"/>
<path class="cls-2" d="M25.931,60.067l-1.6-7.788a1,1,0,0,0-1.26-.758l-1,.292a.974.974,0,0,1,.26.466l1.6,7.788a3.317,3.317,0,0,1-.674,2.773,3.111,3.111,0,0,1-1.95,1.107A3,3,0,0,0,21.74,64h1.1a3.117,3.117,0,0,0,2.418-1.16A3.317,3.317,0,0,0,25.931,60.067Z"/>
<path class="cls-3" d="M23.987,39.384a1,1,0,0,0-1.249-.807L10.847,41.8a1,1,0,0,0-.716,1.173,78.487,78.487,0,0,0,3.674,12.391,1,1,0,0,0,1.211.594l.9-.263h0L25.28,52.96a1,1,0,0,0,.707-1.118Z"/>
<path class="cls-4" d="M23.987,39.384a1,1,0,0,0-1.249-.807l-1.038.282a.976.976,0,0,1,.287.525l2,12.458a1,1,0,0,1-.707,1.118l-9.275,2.712a.984.984,0,0,0,1.011.288l.9-.263h0L25.28,52.96a1,1,0,0,0,.707-1.118Z"/>
<path class="cls-1" d="M25.257,1.16A3.117,3.117,0,0,0,22.839,0h-1.1a3.134,3.134,0,0,0-2.561,1.337,59.433,59.433,0,0,0-4.437,7.477,1,1,0,0,0,.612,1.409l7.72,2.256a1,1,0,0,0,1.26-.758l1.6-7.788A3.317,3.317,0,0,0,25.257,1.16Z"/>
<path class="cls-2" d="M25.257,1.16A3.117,3.117,0,0,0,22.839,0h-1.1a3,3,0,0,0-.433.053,3.111,3.111,0,0,1,1.95,1.107,3.317,3.317,0,0,1,.674,2.773l-1.6,7.788a.974.974,0,0,1-.26.466l1,.292a1,1,0,0,0,1.26-.758l1.6-7.788A3.317,3.317,0,0,0,25.257,1.16Z"/>
<path class="cls-3" d="M25.28,11.04,15.917,8.3h0l-.9-.263a1,1,0,0,0-1.211.594,78.487,78.487,0,0,0-3.674,12.391,1,1,0,0,0,.716,1.173l11.891,3.225a1.02,1.02,0,0,0,.262.035,1,1,0,0,0,.987-.842l2-12.458A1,1,0,0,0,25.28,11.04Z"/>
<path class="cls-4" d="M25.28,11.04,15.917,8.3h0l-.9-.263A1,1,0,0,0,14,8.326L23.28,11.04a1,1,0,0,1,.707,1.118l-2,12.458a.976.976,0,0,1-.287.525l1.038.282a1.02,1.02,0,0,0,.262.035,1,1,0,0,0,.987-.842l2-12.458A1,1,0,0,0,25.28,11.04Z"/>
<path class="cls-1" d="M49.281,54.339a1,1,0,0,0-.635-.562l-7.721-2.256a1,1,0,0,0-1.26.758l-1.6,7.788a3.314,3.314,0,0,0,.674,2.773A3.118,3.118,0,0,0,41.161,64h1.1a3.136,3.136,0,0,0,2.561-1.337,59.5,59.5,0,0,0,4.437-7.477A1,1,0,0,0,49.281,54.339Z"/>
<path class="cls-2" d="M49.281,54.339a1,1,0,0,0-.635-.562l-7.721-2.256a.9.9,0,0,0-1,.292l6.721,1.964a1,1,0,0,1,.612,1.409,59.5,59.5,0,0,1-4.437,7.477,3.119,3.119,0,0,1-2.128,1.284,3.048,3.048,0,0,0,.468.053h1.1a3.136,3.136,0,0,0,2.561-1.337,59.5,59.5,0,0,0,4.437-7.477A1,1,0,0,0,49.281,54.339Z"/>
<path class="cls-3" d="M53.153,41.8,41.262,38.577a1,1,0,0,0-1.249.807l-2,12.458a1,1,0,0,0,.707,1.118L48.083,55.7h0l.9.263a1.015,1.015,0,0,0,.281.04,1,1,0,0,0,.93-.634A78.561,78.561,0,0,0,53.87,42.975,1,1,0,0,0,53.153,41.8Z"/>
<path class="cls-4" d="M53.153,41.8,41.262,38.577a1,1,0,0,0-.8.125.971.971,0,0,0-.157.157L51.153,41.8a1,1,0,0,1,.717,1.173A78.561,78.561,0,0,1,48.2,55.366a.974.974,0,0,1-.2.306l.087.025h0l.9.263a1.015,1.015,0,0,0,.281.04,1,1,0,0,0,.93-.634A78.561,78.561,0,0,0,53.87,42.975,1,1,0,0,0,53.153,41.8Z"/>
<path class="cls-1" d="M49.258,8.814a59.5,59.5,0,0,0-4.437-7.477A3.136,3.136,0,0,0,42.26,0h-1.1a3.118,3.118,0,0,0-2.418,1.16,3.314,3.314,0,0,0-.674,2.773l1.6,7.788a1,1,0,0,0,1.26.758l7.721-2.256a1,1,0,0,0,.612-1.409Z"/>
<path class="cls-2" d="M49.258,8.814a59.5,59.5,0,0,0-4.437-7.477A3.136,3.136,0,0,0,42.26,0h-1.1a3.048,3.048,0,0,0-.468.053,3.119,3.119,0,0,1,2.128,1.284,59.5,59.5,0,0,1,4.437,7.477,1,1,0,0,1-.612,1.409l-6.721,1.964a.953.953,0,0,0,1,.292l7.721-2.256a1,1,0,0,0,.612-1.409Z"/>
<path class="cls-3" d="M53.87,21.025A78.561,78.561,0,0,0,50.2,8.634a1,1,0,0,0-1.211-.594l-.9.263h0L38.72,11.04a1,1,0,0,0-.707,1.118l2,12.458a1,1,0,0,0,.987.842,1.014,1.014,0,0,0,.262-.035L53.153,22.2A1,1,0,0,0,53.87,21.025Z"/>
<path class="cls-4" d="M53.87,21.025A78.561,78.561,0,0,0,50.2,8.634a1,1,0,0,0-1.211-.594l-.9.263h0L48,8.326a1,1,0,0,1,.193.308A78.561,78.561,0,0,1,51.87,21.025a1,1,0,0,1-.717,1.173L40.3,25.141a.971.971,0,0,0,.157.157,1,1,0,0,0,.8.125L53.153,22.2A1,1,0,0,0,53.87,21.025Z"/>
<path class="cls-1" d="M54.727,20.776a1,1,0,0,0-1.237-.741l-14.752,4A1,1,0,0,0,38,25V39a1,1,0,0,0,.738.965l14.752,4a1.014,1.014,0,0,0,.262.035,1,1,0,0,0,.975-.776,50.117,50.117,0,0,0,0-22.448Z"/>
<path class="cls-2" d="M54.727,20.776a1,1,0,0,0-1.237-.741l-1.035.281a.984.984,0,0,1,.272.46,50.117,50.117,0,0,1,0,22.448.984.984,0,0,1-.272.46l1.035.281a1.014,1.014,0,0,0,.262.035,1,1,0,0,0,.975-.776,50.117,50.117,0,0,0,0-22.448Z"/>
<path class="cls-1" d="M25.262,24.035l-14.752-4a1,1,0,0,0-1.237.741,50.117,50.117,0,0,0,0,22.448,1,1,0,0,0,.975.776,1.02,1.02,0,0,0,.262-.035l14.752-4A1,1,0,0,0,26,39V25A1,1,0,0,0,25.262,24.035Z"/>
<path class="cls-2" d="M25.262,24.035l-14.752-4a1,1,0,0,0-.776.108.913.913,0,0,0-.189.173l13.717,3.719A1,1,0,0,1,24,25V39a1,1,0,0,1-.738.965L9.545,43.684a.913.913,0,0,0,.189.173,1,1,0,0,0,.514.143,1.02,1.02,0,0,0,.262-.035l14.752-4A1,1,0,0,0,26,39V25A1,1,0,0,0,25.262,24.035Z"/>
</g>
</svg>