<?xml version="1.0" encoding="iso-8859-1"?>
<!-- Uploaded to: SVG Repo, www.svgrepo.com, Generator: SVG Repo Mixer Tools -->
<svg height="800px" width="800px" version="1.1" id="Layer_1" xmlns="http://www.w3.org/2000/svg" xmlns:xlink="http://www.w3.org/1999/xlink" 
	 viewBox="0 0 502 502" xml:space="preserve">
<g>
	<g>
		<g>
			<path style="fill:#FFB86C;" d="M420.164,142.9c10.259,14.264,16.088,31.924,15.451,50.98
				c-1.422,42.588-35.589,77.461-78.142,79.687c-47.65,2.492-87.068-35.407-87.068-82.512c0-20.307,7.332-38.895,19.487-53.278
				c4.713-5.577,3.074-14.092-3.492-17.285c-10.097-4.908-19.22-10.765-27.119-17.392c-4.07-3.414-9.988-3.414-14.058,0
				c-7.913,6.639-17.055,12.505-27.174,17.419c-6.542,3.177-8.171,11.663-3.473,17.215c12.607,14.897,20.036,34.313,19.495,55.481
				c-1.089,42.647-37.957,79.439-80.606,80.444c-46.546,1.097-84.623-36.308-84.623-82.605c0-17.853,5.672-34.375,15.303-47.881
				c4.257-5.97,1.841-14.389-5.027-16.958c-20.195-7.556-37.399-18.642-50.01-32.112C22.264,86.793,10,91.689,10,101.703v274.823
				c0,19.259,15.612,34.871,34.871,34.871h412.258c19.259,0,34.871-15.612,34.871-34.871V104.288
				c0-9.893-11.944-14.771-18.935-7.771c-12.377,12.393-28.729,22.616-47.726,29.716C418.549,128.771,415.931,137.016,420.164,142.9
				z"/>
			<path d="M457.129,421.397H44.871C20.129,421.397,0,401.268,0,376.525V101.703c0-8.71,5.238-16.407,13.344-19.609
				c8.08-3.192,17.133-1.16,23.064,5.176c11.585,12.374,27.566,22.603,46.213,29.579c6.152,2.302,10.784,7.231,12.708,13.524
				c1.95,6.379,0.84,13.16-3.043,18.606c-8.795,12.334-13.444,26.884-13.444,42.074c0,19.724,7.772,38.178,21.885,51.962
				c14.107,13.779,32.73,21.089,52.502,20.646c37.445-0.883,69.889-33.26,70.845-70.702c0.456-17.854-5.628-35.173-17.132-48.767
				c-4.291-5.071-5.968-11.69-4.602-18.16c1.347-6.376,5.48-11.665,11.339-14.51c9.364-4.548,17.814-9.959,25.115-16.085
				c7.798-6.539,19.115-6.54,26.912-0.001c7.288,6.115,15.72,11.518,25.064,16.06c5.87,2.854,10.011,8.154,11.361,14.541
				c1.37,6.479-0.308,13.11-4.602,18.192c-11.043,13.067-17.125,29.696-17.125,46.823c0,20.121,8.041,38.833,22.642,52.689
				c14.589,13.848,33.735,20.894,53.904,19.837c37.26-1.949,67.423-32.712,68.67-70.035c0.542-16.212-4.153-31.706-13.575-44.807
				l0,0c-3.827-5.32-4.929-11.97-3.023-18.244c1.924-6.337,6.595-11.304,12.815-13.628c17.507-6.544,32.774-16.023,44.151-27.415
				c6.069-6.076,15.106-7.884,23.027-4.607C496.903,88.107,502,95.74,502,104.288v272.237
				C502,401.268,481.871,421.397,457.129,421.397z M21.149,100.597c-0.128,0-0.279,0.028-0.458,0.099
				C20,100.969,20,101.429,20,101.703v274.822c0,13.714,11.157,24.871,24.871,24.871h412.258c13.714,0,24.871-11.157,24.871-24.871
				V104.288c0-0.28,0-0.703-0.631-0.965c-0.685-0.282-1.038,0.07-1.228,0.261c-13.388,13.405-31.128,24.477-51.301,32.017
				c-0.349,0.131-0.578,0.367-0.68,0.705c-0.125,0.411,0.048,0.651,0.123,0.755c12.026,16.72,18.018,36.482,17.328,57.152
				c-1.59,47.61-40.075,86.854-87.614,89.34c-25.7,1.348-50.108-7.642-68.717-25.303c-18.62-17.671-28.874-41.535-28.874-67.196
				c0-21.848,7.759-43.061,21.849-59.732c0.365-0.433,0.371-0.861,0.311-1.146c-0.102-0.479-0.407-0.627-0.538-0.69
				c-10.817-5.258-20.633-11.558-29.174-18.725c-0.354-0.295-0.85-0.297-1.205,0.002c-8.557,7.179-18.393,13.488-29.232,18.752
				c-0.134,0.065-0.412,0.2-0.508,0.653c-0.058,0.274-0.053,0.688,0.301,1.106c14.677,17.345,22.44,39.433,21.858,62.196
				c-0.593,23.204-10.413,45.457-27.651,62.661c-17.238,17.203-39.512,26.979-62.717,27.525c-0.751,0.018-1.506,0.026-2.255,0.026
				c-24.342,0.002-47.237-9.31-64.693-26.359c-17.999-17.579-27.911-41.114-27.911-66.27c0-19.378,5.934-37.942,17.16-53.687
				c0.319-0.447,0.285-0.871,0.201-1.147c-0.145-0.473-0.456-0.589-0.589-0.639c-21.519-8.051-40.125-20.03-53.805-34.644
				C21.673,100.794,21.488,100.597,21.149,100.597z"/>
		</g>
	</g>
	<g>
		<path d="M356.297,375.654H71c-5.523,0-10-4.478-10-10s4.477-10,10-10h285.297c5.523,0,10,4.478,10,10
			S361.82,375.654,356.297,375.654z"/>
	</g>
	<g>
		<path d="M435,375.654h-30.497c-5.523,0-10-4.478-10-10s4.477-10,10-10H435c5.523,0,10,4.478,10,10S440.523,375.654,435,375.654z"
			/>
	</g>
	<g>
		<path d="M45,288.654c-5.523,0-10-4.478-10-10v-27c0-5.522,4.477-10,10-10s10,4.478,10,10v27C55,284.177,50.523,288.654,45,288.654
			z"/>
	</g>
	<g>
		<path d="M459,288.654c-5.523,0-10-4.478-10-10v-27c0-5.522,4.477-10,10-10s10,4.478,10,10v27
			C469,284.177,464.523,288.654,459,288.654z"/>
	</g>
	<g>
		<path d="M252,288.654c-5.523,0-10-4.478-10-10v-27c0-5.522,4.477-10,10-10c5.523,0,10,4.478,10,10v27
			C262,284.177,257.523,288.654,252,288.654z"/>
	</g>
</g>
</svg>