<?xml version="1.0" encoding="iso-8859-1"?>
<!-- Uploaded to: SVG Repo, www.svgrepo.com, Generator: SVG Repo Mixer Tools -->
<svg height="800px" width="800px" version="1.1" id="Layer_1" xmlns="http://www.w3.org/2000/svg" xmlns:xlink="http://www.w3.org/1999/xlink" 
	 viewBox="0 0 511.999 511.999" xml:space="preserve">
<path style="fill:#FC4C59;" d="M416.287,435.941H95.878c-8.554,0-15.487,7.037-15.487,15.591v32.154
	c0,8.554,6.934,15.487,15.487,15.487h320.409c8.554,0,15.487-6.934,15.487-15.487v-32.154
	C431.774,442.978,424.84,435.941,416.287,435.941z"/>
<path style="fill:#E83A64;" d="M416.287,435.941h-54.682c8.554,0,15.487,7.037,15.487,15.591v32.154
	c0,8.554-6.934,15.487-15.487,15.487h54.682c8.554,0,15.487-6.934,15.487-15.487v-32.154
	C431.774,442.978,424.84,435.941,416.287,435.941z"/>
<path style="fill:#FFDB6C;" d="M338.756,188.971c15.561-8.153,33.269-12.764,52.054-12.764c62.033,0,112.32,50.288,112.32,112.32
	c0,5.669,0.296,23.483-9.054,42.344c-14.385,29.019-37.825,33.288-58.327,63.845c-10.501,15.652-15.355,30.846-17.809,41.225H94.059
	c-2.454-10.38-7.307-25.574-17.808-41.225c-20.503-30.557-43.942-34.826-58.327-63.845c-9.35-18.862-9.054-36.676-9.054-42.344
	c0-62.033,50.288-112.32,112.32-112.32c18.785,0,36.493,4.611,52.054,12.764H338.756z"/>
<g>
	<path style="fill:#FFB966;" d="M503.094,288.527c0-62.033-50.288-112.32-112.32-112.32c-18.785,0-36.493,4.611-52.054,12.764
		c0,0,4.036,236.59,1.582,246.97h77.602c2.454-10.38,7.307-25.574,17.809-41.225c20.503-30.557,43.942-34.826,58.327-63.845
		C503.39,312.01,503.094,294.196,503.094,288.527z"/>
	<path style="fill:#FFB966;" d="M80.351,400.627c7.969,13.508,11.944,26.248,14.087,35.314h323.881
		c2.144-9.066,6.118-21.804,14.087-35.314H80.351z"/>
</g>
<path style="fill:#F7A05E;" d="M417.903,435.941c2.144-9.066,6.118-21.804,14.087-35.314H330.743
	c-7.969,13.508-11.944,26.248-14.087,35.314H417.903z"/>
<path style="fill:#FFDB6C;" d="M303.546,134.895h-94.927v-10.181c0-26.213,21.25-47.463,47.464-47.463l0,0
	c26.213,0,47.464,21.25,47.464,47.463v10.181H303.546z"/>
<path style="fill:#FFB966;" d="M256.082,77.25L256.082,77.25c-5.455,0-10.689,0.932-15.568,2.626
	c18.565,6.445,31.897,24.079,31.897,44.838v10.181h31.134v-10.181C303.546,98.5,282.296,77.25,256.082,77.25z"/>
<path style="fill:#7C54B8;" d="M195.109,192.539c-7.975,0.409-45.753,3.186-73.426,34.287
	c-19.601,22.03-33.177,57.197-23.844,88.083c11.42,37.79,49.395,43.552,62.072,91.63c3.173,12.035,3.63,22.669,3.547,29.402h193.001
	c-0.083-6.733,0.374-17.366,3.547-29.402c12.677-48.078,50.652-53.839,62.072-91.63c9.333-30.886-4.242-66.053-23.844-88.083
	c-27.672-31.101-65.451-33.878-73.426-34.287"/>
<path style="fill:#674799;" d="M361.782,400.627H158.137c0.63,1.906,1.233,3.857,1.776,5.912c3.173,12.035,3.63,22.669,3.547,29.402
	H356.46c-0.083-6.733,0.374-17.366,3.547-29.402C360.548,404.485,361.152,402.533,361.782,400.627z"/>
<path style="fill:#FFDB6C;" d="M213.821,192.539c-10.363,40.082-16.069,83.751-16.069,129.462c0,39.914,4.351,78.167,12.352,113.94
	h91.957c8.001-35.773,12.352-74.026,12.352-113.94c0-45.711-5.705-89.38-16.069-129.462H213.821z"/>
<path style="fill:#FFB966;" d="M210.103,435.941h91.957c2.576-11.522,4.769-23.305,6.565-35.314H203.539
	C205.334,412.636,207.527,424.419,210.103,435.941z"/>
<path style="fill:#674799;" d="M398.235,226.826c-27.672-31.101-65.451-33.878-73.426-34.287h-26.465
	c10.363,40.082,16.069,83.751,16.069,129.462c0,39.787-4.325,78.264-12.277,113.94h54.325c-0.083-6.733,0.374-17.366,3.547-29.402
	c12.677-48.078,50.652-53.839,62.072-91.63C431.411,284.023,417.836,248.856,398.235,226.826z"/>
<path style="fill:#553D82;" d="M361.782,400.627h-53.119c-1.785,12.028-3.966,23.818-6.528,35.314h54.325
	c-0.083-6.733,0.374-17.366,3.547-29.402C360.548,404.485,361.152,402.533,361.782,400.627z"/>
<g>
	<circle style="fill:#FFDB6C;" cx="113.786" cy="467.608" r="8.867"/>
	<circle style="fill:#FFDB6C;" cx="149.433" cy="467.608" r="8.867"/>
	<circle style="fill:#FFDB6C;" cx="185.08" cy="467.608" r="8.867"/>
	<circle style="fill:#FFDB6C;" cx="220.727" cy="467.608" r="8.867"/>
	<circle style="fill:#FFDB6C;" cx="256.374" cy="467.608" r="8.867"/>
	<circle style="fill:#FFDB6C;" cx="292.032" cy="467.608" r="8.867"/>
	<circle style="fill:#FFDB6C;" cx="363.326" cy="467.608" r="8.867"/>
	<circle style="fill:#FFDB6C;" cx="327.679" cy="467.608" r="8.867"/>
	<circle style="fill:#FFDB6C;" cx="398.973" cy="467.608" r="8.867"/>
</g>
<path style="fill:#FD4DD7;" d="M324.929,192.539H187.236c-15.919,0-28.823-12.904-28.823-28.823l0,0
	c0-15.919,12.904-28.823,28.823-28.823h137.693c15.919,0,28.823,12.904,28.823,28.823l0,0
	C353.752,179.635,340.847,192.539,324.929,192.539z"/>
<path style="fill:#E846AA;" d="M324.809,134.895H280.71c15.919,0,28.823,12.904,28.823,28.823l0,0
	c0,15.919-12.904,28.823-28.823,28.823h44.098c15.919,0,28.823-12.904,28.823-28.823l0,0
	C353.631,147.799,340.727,134.895,324.809,134.895z"/>
<g>
	<circle style="fill:#FFDB6C;" cx="220.727" cy="163.716" r="8.867"/>
	<circle style="fill:#FFDB6C;" cx="256.374" cy="163.716" r="8.867"/>
	<circle style="fill:#FFDB6C;" cx="292.032" cy="163.716" r="8.867"/>
</g>
<path d="M511.998,289.021v-0.494c0-33.685-13.491-64.979-37.989-88.118c-3.561-3.363-9.174-3.203-12.536,0.358
	c-3.362,3.56-3.202,9.172,0.358,12.536c20.914,19.753,32.432,46.469,32.432,75.225v0.518c0.008,5.86,0.03,21.422-8.132,37.886
	c-6.776,13.67-15.861,21.213-26.379,29.949c-9.843,8.175-20.998,17.439-31.367,32.893c-7.576,11.291-13.376,23.838-17.284,37.38
	h-45.52c0.435-6.251,1.429-12.399,3-18.355c6.169-23.398,18.632-35.447,31.826-48.204c11.898-11.503,24.199-23.397,30.16-43.122
	c10.542-34.883-5.316-73.623-25.707-96.542c-14.475-16.269-31.406-25.47-46.399-30.673c10.394-3.407,21.346-5.186,32.349-5.186
	c9.868,0,19.623,1.385,28.996,4.116c4.702,1.373,9.624-1.331,10.994-6.033s-1.331-9.624-6.033-10.994
	c-10.986-3.202-22.411-4.824-33.957-4.824c-9.741,0-19.453,1.185-28.873,3.488c0.442-2.304,0.682-4.68,0.682-7.11
	c0-20.783-16.907-37.69-37.69-37.69h-12.516v-1.314c0-4.897-3.97-8.867-8.867-8.867c-4.897,0-8.867,3.97-8.867,8.867v1.314h-77.192
	v-1.314c0-21.282,17.314-38.597,38.597-38.597c8.945,0,17.663,3.128,24.547,8.811c3.778,3.115,9.366,2.582,12.484-1.195
	c3.117-3.778,2.582-9.366-1.195-12.484c-7.788-6.427-17.181-10.605-27.088-12.167V49.282h13.203c4.897,0,8.867-3.97,8.867-8.867
	s-3.97-8.867-8.867-8.867H264.83V12.826c0-4.897-3.97-8.867-8.867-8.867c-4.897,0-8.867,3.97-8.867,8.867v18.72h-13.597
	c-4.897,0-8.867,3.97-8.867,8.867s3.97,8.867,8.867,8.867h13.597v19.826c-26.803,4.317-47.344,27.604-47.344,55.606v1.314h-12.515
	c-20.783,0-37.69,16.907-37.69,37.69c0,2.446,0.242,4.836,0.689,7.153c-9.475-2.332-19.246-3.53-29.047-3.53
	c-66.824,0-121.188,54.364-121.188,121.188v0.494c-0.008,6.329-0.035,25.59,9.976,45.788c8.445,17.035,19.88,26.531,30.938,35.716
	c9.356,7.769,19.029,15.804,27.971,29.131c6.28,9.36,11.133,19.767,14.521,30.993c-7.105,4.259-11.886,12.012-11.886,20.882v32.154
	c0,13.429,10.926,24.355,24.356,24.355h320.409c13.429,0,24.355-10.926,24.355-24.355v-32.154c0-8.928-4.843-16.726-12.025-20.967
	c3.387-11.192,8.23-21.57,14.495-30.908c8.942-13.327,18.617-21.362,27.971-29.131c11.058-9.184,22.492-18.681,30.938-35.716
	C512.034,314.611,512.008,295.35,511.998,289.021z M305.544,322.001c0,35.803-3.555,71.03-10.571,104.834h-77.781
	c-7.016-33.806-10.572-69.033-10.572-104.834c0-41.523,4.747-82.054,14.119-120.594h70.687
	C300.797,239.945,305.544,280.476,305.544,322.001z M195.366,201.406h7.157c-9.044,38.654-13.638,79.16-13.638,120.594
	c0,35.743,3.443,70.949,10.218,104.834h-26.999c-0.475-7.678-1.686-15.233-3.618-22.557c-7.432-28.185-22.954-43.191-36.647-56.432
	c-11.206-10.835-20.883-20.192-25.511-35.502c-8.558-28.32,4.872-60.396,21.979-79.623
	C151.645,206.493,182.83,202.078,195.366,201.406z M391.611,232.721c17.107,19.227,30.537,51.304,21.979,79.623
	c-4.628,15.311-14.305,24.668-25.511,35.502c-13.695,13.241-29.215,28.247-36.647,56.432c-1.932,7.326-3.143,14.881-3.618,22.557
	h-34.753c6.775-33.885,10.218-69.091,10.218-104.834c0-41.437-4.594-81.942-13.638-120.594h14.911
	C337.088,202.078,368.273,206.493,391.611,232.721z M187.235,143.762h21.382h94.927h21.383c11.004,0,19.955,8.951,19.955,19.955
	c0,7.41-4.068,13.876-10.079,17.317c-0.054,0.028-0.109,0.054-0.163,0.083c-0.14,0.073-0.267,0.157-0.401,0.236
	c-2.782,1.476-5.948,2.319-9.312,2.319h-26.586H213.82h-26.586c-11.004,0-19.955-8.951-19.955-19.955
	S176.232,143.762,187.235,143.762z M52.245,356.881c-10.518-8.736-19.603-16.281-26.379-29.949
	c-8.162-16.464-8.14-32.028-8.132-37.886v-0.518c0-57.045,46.408-103.453,103.453-103.453c12.444,0,24.826,2.263,36.404,6.6
	c-13.989,5.404-29.29,14.375-42.533,29.259c-20.393,22.918-36.249,61.658-25.707,96.542c5.961,19.726,18.262,31.62,30.16,43.122
	c13.195,12.757,25.656,24.806,31.826,48.204c1.57,5.955,2.564,12.103,3,18.356h-53.441c-3.91-13.543-9.709-26.091-17.284-37.38
	C73.244,374.322,62.088,365.056,52.245,356.881z M422.907,483.686c0,3.65-2.97,6.62-6.62,6.62H95.878c-3.65,0-6.621-2.97-6.621-6.62
	v-32.154c0-3.65,2.97-6.621,6.621-6.621h114.213c0.005,0,0.009,0,0.013,0h91.957c0.005,0,0.009,0,0.013,0h114.213
	c3.65,0,6.62,2.97,6.62,6.621v32.154H422.907z"/>
<circle cx="113.786" cy="467.608" r="8.867"/>
<circle cx="149.433" cy="467.608" r="8.867"/>
<circle cx="185.08" cy="467.608" r="8.867"/>
<circle cx="220.727" cy="467.608" r="8.867"/>
<circle cx="256.374" cy="467.608" r="8.867"/>
<circle cx="292.032" cy="467.608" r="8.867"/>
<circle cx="220.727" cy="163.716" r="8.867"/>
<circle cx="256.374" cy="163.716" r="8.867"/>
<circle cx="292.032" cy="163.716" r="8.867"/>
<circle cx="363.326" cy="467.608" r="8.867"/>
<circle cx="327.679" cy="467.608" r="8.867"/>
<circle cx="398.973" cy="467.608" r="8.867"/>
</svg>