<?xml version="1.0" encoding="iso-8859-1"?>
<!-- Uploaded to: SVG Repo, www.svgrepo.com, Generator: SVG Repo Mixer Tools -->
<svg height="800px" width="800px" version="1.1" id="Layer_1" xmlns="http://www.w3.org/2000/svg" xmlns:xlink="http://www.w3.org/1999/xlink" 
	 viewBox="0 0 512 512" xml:space="preserve">
<polygon style="fill:#DDB200;" points="451.641,191.859 392.557,130.305 333.473,189.388 333.473,256 451.641,256 "/>
<g style="opacity:0.22;">
	<polygon style="fill:#494949;" points="333.388,223.834 333.388,255.911 451.556,255.911 451.556,191.77 433.604,173.068 	"/>
</g>
<polygon style="fill:#DDB200;" points="178.252,189.388 119.167,130.305 60.084,191.795 60.084,256 178.252,256 "/>
<g style="opacity:0.22;">
	<polygon style="fill:#494949;" points="61.67,223.834 61.67,255.911 179.837,255.911 180.358,191.627 161.886,173.068 	"/>
</g>
<polygon style="fill:#EEBF00;" points="512,441.838 511.92,164.164 362.222,232.944 256,70.162 149.778,232.944 0.134,164.164 
	0,441.838 "/>
<g style="opacity:0.22;">
	<path style="fill:#494949;" d="M511.92,163.852l-27.269,12.529L481.907,381c-0.192,14.314-11.878,25.803-26.193,25.75
		L0.028,405.096L0,441.527h512L511.92,163.852z"/>
</g>
<g>
	<polygon style="fill:#5374FC;" points="107.68,331.279 75.512,377.233 43.343,331.279 75.512,285.324 	"/>
	<polygon style="fill:#5374FC;" points="228.025,331.279 195.856,377.233 163.688,331.279 195.856,285.324 	"/>
	<polygon style="fill:#5374FC;" points="348.37,331.279 316.201,377.233 284.032,331.279 316.201,285.324 	"/>
	<polygon style="fill:#5374FC;" points="468.714,331.279 436.546,377.233 404.377,331.279 436.546,285.324 	"/>
</g>
<circle style="fill:#FF0C38;" cx="256.03" cy="189.383" r="28.032"/>
<g>
	<polygon style="fill:#4D53F1;" points="75.512,285.324 75.512,377.232 107.68,331.278 	"/>
	<polygon style="fill:#4D53F1;" points="195.856,285.324 195.856,377.232 228.025,331.278 	"/>
	<polygon style="fill:#4D53F1;" points="316.201,285.324 316.201,377.232 348.37,331.278 	"/>
	<polygon style="fill:#4D53F1;" points="436.546,285.324 436.546,377.232 468.714,331.278 	"/>
</g>
</svg>