<?xml version="1.0" encoding="iso-8859-1"?>
<!-- Uploaded to: SVG Repo, www.svgrepo.com, Generator: SVG Repo Mixer Tools -->
<svg fill="#000000" height="800px" width="800px" version="1.1" id="Layer_1" xmlns="http://www.w3.org/2000/svg" xmlns:xlink="http://www.w3.org/1999/xlink" 
	 viewBox="0 0 491.52 491.52" xml:space="preserve">
<g>
	<g>
		<g>
			<path d="M409.6,450.56h-23.061c-9.093-35.334-41.165-61.44-79.339-61.44h-4.49l-15.36-61.441l13.514-54.071
				c39.623-19.812,67.776-59.953,67.776-105.672V97.301c-0.003-1.717-0.003-1.717-0.011-3.358
				c-0.066-12.859,0.552-16.969,2.786-20.117l10.814-15.238C399.666,34.122,382.218,0,352.113,0H139.407
				c-30.105,0-47.553,34.122-30.092,58.621l10.79,15.204c2.234,3.148,2.853,7.258,2.787,20.117
				c-0.008,1.641-0.008,1.641-0.011,3.358v70.635c0,45.719,28.153,85.86,67.776,105.672l13.514,54.071l-15.36,61.441h-4.49
				c-38.174,0-70.246,26.106-79.339,61.44H81.92c-11.311,0-20.48,9.169-20.48,20.48s9.169,20.48,20.48,20.48h40.96h245.76h40.96
				c11.311,0,20.48-9.169,20.48-20.48S420.911,450.56,409.6,450.56z M163.84,167.936V97.301c0.003-1.541,0.003-1.541,0.011-3.146
				c0.11-21.325-1.414-31.455-10.343-44.035l-6.5-9.159h197.505l-6.5,9.16c-8.928,12.58-10.453,22.71-10.343,44.034
				c0.008,1.605,0.008,1.605,0.011,3.146v70.635c0,30.68-20.482,58.171-48.662,70.679c-1.155,0.267-2.313,0.628-3.468,1.114
				c-8.215,3.463-16.925,5.477-25.887,5.931c-1.296,0.063-2.597,0.1-3.903,0.1s-2.608-0.036-3.903-0.1
				c-8.962-0.454-17.671-2.468-25.887-5.931c-1.155-0.487-2.313-0.847-3.468-1.114C184.322,226.107,163.84,198.616,163.84,167.936z
				 M240.596,286.601c0.232,0.01,0.465,0.018,0.697,0.027c1.485,0.055,2.973,0.092,4.467,0.092s2.983-0.037,4.467-0.092
				c0.232-0.009,0.465-0.016,0.697-0.027c1.519-0.065,3.034-0.155,4.541-0.276l-5.217,20.874h-8.977l-5.217-20.874
				C237.562,286.447,239.076,286.537,240.596,286.601z M241.27,348.16h8.979l10.24,40.96H231.03L241.27,348.16z M148.838,450.56
				c7.081-12.244,20.318-20.48,35.482-20.48h20.48h81.92h20.48c15.164,0,28.4,8.236,35.482,20.48H148.838z"/>
			<path d="M225.28,143.36h40.96c11.311,0,20.48-9.169,20.48-20.48s-9.169-20.48-20.48-20.48h-40.96
				c-11.311,0-20.48,9.169-20.48,20.48S213.969,143.36,225.28,143.36z"/>
		</g>
	</g>
</g>
</svg>