<?xml version="1.0" encoding="iso-8859-1"?>
<!-- Uploaded to: SVG Repo, www.svgrepo.com, Generator: SVG Repo Mixer Tools -->
<svg height="800px" width="800px" version="1.1" id="Layer_1" xmlns="http://www.w3.org/2000/svg" xmlns:xlink="http://www.w3.org/1999/xlink" 
	 viewBox="0 0 400.039 400.039" xml:space="preserve">
<g transform="translate(0 -1020.36)" shape-rendering="auto" image-rendering="auto" color-rendering="auto" color-interpolation="sRGB">
	<g>
		<path style="fill:#5A3392;" d="M157.317,1051.299c-11.255,0.014-21.083,6.451-25.969,15.75l13.375,9.25
			c1.592-5.129,6.287-8.93,12.594-8.938h85.406c7.721,0,13.219,5.6,13.219,12.531v27.406c0.032,4.436,3.654,8.006,8.09,7.973
			c4.39-0.031,7.94-3.582,7.973-7.973v-27.406c0-15.828-13.323-28.594-29.281-28.594H157.317z"/>
		<path style="fill:#5A3392;" d="M55.984,1101.508c-30.886,0-55.984,25.098-55.984,55.984v175.984
			c0,30.885,25.099,55.984,55.984,55.984h288.071c30.886,0,55.984-25.1,55.984-55.984v-175.984
			c0-30.887-25.099-55.984-55.984-55.984H55.984L55.984,1101.508z"/>
	</g>
	<path style="fill:#FAEADF;" d="M55.984,1117.451h288.071c22.298,0,39.921,17.74,39.921,40.039v175.984
		c0,22.297-17.623,40.039-39.921,40.039H55.984c-22.298,0-40.039-17.74-40.039-40.039V1157.49
		C15.945,1135.191,33.686,1117.451,55.984,1117.451L55.984,1117.451z"/>
	<path style="fill:#3CDEF6;" d="M55.984,1117.437c-22.298,0-40.031,17.764-40.031,40.063v175.969
		c0,22.299,17.733,40.031,40.031,40.031h288.063c22.298,0,39.937-17.732,39.937-40.031V1157.5c0-22.299-17.639-40.063-39.937-40.063
		C344.046,1117.437,55.984,1117.437,55.984,1117.437z"/>
	<g>
		<path style="fill:#FFFFFF;" d="M55.796,1133.437c4.417-0.123,8.097,3.359,8.22,7.775c0.063,2.262-0.834,4.443-2.469,6.006
			l-6.5,6.5c-4.504,4.5-7.094,10.633-7.094,17v2.596c0.395,4.4-2.853,8.289-7.254,8.684c-4.401,0.395-8.289-2.852-8.684-7.254
			c-0.043-0.475-0.043-0.953,0-1.43v-2.596c0-10.605,4.184-20.723,11.688-28.219l6.625-6.625c1.226-1.279,2.841-2.115,4.593-2.377
			c0.291-0.016,0.584-0.016,0.875,0L55.796,1133.437z"/>
		<path style="fill:#FFFFFF;" d="M39.421,1189.5c0.197-0.008,0.395-0.008,0.593,0c4.418,0,8,3.582,8,8s-3.582,8-8,8
			c-4.418,0-8-3.582-8-8l0,0C32.002,1193.302,35.236,1189.81,39.421,1189.5L39.421,1189.5z"/>
	</g>
	<path style="fill:#29A3EC;" d="M305.013,1117.459l-158.156,256.063h197.187c22.298,0,39.937-17.732,39.937-40.031v-176
		c0-22.297-17.639-40.031-39.937-40.031H305.013z"/>
	<path style="fill:#FB9761;" d="M199.961,1181.467c39.859,0,72.047,32.188,72.047,72.047c0,39.859-32.188,71.93-72.047,71.93
		c-39.859,0-71.929-32.07-71.929-71.93C128.031,1213.654,160.101,1181.467,199.961,1181.467L199.961,1181.467z"/>
	<path style="fill:#EE746C;" d="M251.794,1203.615l-73.062,118.314c6.747,2.08,13.769,3.531,21.219,3.531
		c39.859,0,72.062-32.078,72.062-71.938c0-19.434-7.757-36.961-20.219-49.906V1203.615z"/>
	<path style="fill:#FB9761;" d="M199.968,1190.129c35.063,0,63.378,28.314,63.378,63.377c0,35.063-28.315,63.273-63.378,63.273
		s-63.274-28.211-63.274-63.273C136.693,1218.441,164.904,1190.129,199.968,1190.129z"/>
	<path style="fill:#EE746C;" d="M247.012,1211.365l-63.594,102.969c5.302,1.424,10.796,2.438,16.563,2.438
		c35.063,0,63.375-28.188,63.375-63.25C263.356,1237.244,257.057,1222.576,247.012,1211.365z"/>
	<g>
		<path style="fill:#5A3392;" d="M183.189,1197.529c-4.072,0.406-7.181,3.822-7.205,7.914v24.094h-23.976
			c-4.397-0.018-7.984,3.518-8.032,7.914v32.008c-0.017,4.418,3.552,8.014,7.97,8.031c0.02,0,0.041,0,0.061,0h23.976v23.977
			c-0.017,4.418,3.552,8.014,7.97,8.031c0.02,0,0.041,0,0.061,0h32.008c4.419,0.018,8.015-3.551,8.032-7.971c0-0.02,0-0.041,0-0.061
			v-23.977h23.976c4.396-0.049,7.93-3.635,7.913-8.031v-32.008c-0.047-4.352-3.562-7.867-7.913-7.914h-23.976v-24.094
			c-0.048-4.396-3.634-7.932-8.032-7.914h-32.008C183.74,1197.515,183.464,1197.515,183.189,1197.529L183.189,1197.529z"/>
		<path style="fill:#EBFEFF;" d="M192.047,1213.474h15.945v23.977c-0.017,4.418,3.552,8.014,7.97,8.031c0.02,0,0.041,0,0.061,0H240
			v16.063h-23.976c-4.397-0.018-7.984,3.518-8.031,7.914v23.977h-15.945v-23.977c-0.048-4.396-3.634-7.932-8.032-7.914h-23.976
			v-16.063h23.976c4.419,0.018,8.015-3.551,8.032-7.971c0-0.02,0-0.041,0-0.061V1213.474L192.047,1213.474z"/>
		<path style="fill:#FFFFFF;" d="M225.95,1245.49l-9.906,16.063h23.969v-16.063H225.95L225.95,1245.49z M207.981,1274.615
			l-11.625,18.813h11.625V1274.615z"/>
	</g>
	<path style="fill:#5A3392;" d="M200.082,1165.521c-10.432,0-21.004,1.813-31.25,5.688c-40.984,15.498-64.366,58.947-54.719,101.686
		c0.966,4.314,5.248,7.029,9.563,6.063s7.029-5.248,6.063-9.563c-7.917-35.076,11.115-70.5,44.75-83.219s71.352,1.217,88.625,32.75
		c17.273,31.537,8.736,70.854-20.094,92.344s-68.926,18.465-94.219-7.094c-3.045-3.201-8.109-3.328-11.311-0.283
		c-3.202,3.045-3.329,8.109-0.284,11.311c0.072,0.076,0.145,0.15,0.22,0.223c30.819,31.146,80.027,34.844,115.156,8.658
		c35.129-26.188,45.61-74.414,24.563-112.846c-15.785-28.822-45.768-45.643-77.063-45.719V1165.521z"/>
</g>
</svg>