<?xml version="1.0" encoding="iso-8859-1"?>
<!-- Uploaded to: SVG Repo, www.svgrepo.com, Generator: SVG Repo Mixer Tools -->
<!DOCTYPE svg PUBLIC "-//W3C//DTD SVG 1.1//EN" "http://www.w3.org/Graphics/SVG/1.1/DTD/svg11.dtd">
<svg fill="#000000" version="1.1" id="Capa_1" xmlns="http://www.w3.org/2000/svg" xmlns:xlink="http://www.w3.org/1999/xlink" 
	 width="800px" height="800px" viewBox="0 0 482.344 482.344"
	 xml:space="preserve">
<g>
	<path d="M482.299,258.795l-6.095-120.602l-0.116-0.898c-1.303-6.885-19.08-67.119-238.426-74.069c-0.046,0-0.078-0.022-0.128-0.022
		c-0.014,0-0.03,0-0.046,0c-0.118,0-0.218,0.008-0.336,0.008c-1.034-0.032-2.002-0.084-3.048-0.108
		c-0.32,0.008-0.601,0.138-0.916,0.18C15.167,65.803,2.62,142.573,2.141,146.606L0.39,263.84
		c-1.289,8.933,0.613,16.507,5.765,22.618c1.914,2.284,4.278,4.216,6.939,5.902l4.779,72.639c0,0.045,0.032,0.076,0.032,0.121
		c0.088,5.237,1.797,10.527,5.198,15.071c6.164,8.26,19.28,15.389,37.572,10.672c42.234-10.908,69.282-7.786,85.06,9.847
		l16.597,18.53l-15.833-75.685c20.975-7.361,37.209-17.035,45.231-23.904c7.534-6.456,12.978-18.49,12.185-29.347
		c-0.016-0.152,0.038-0.292,0.008-0.452l-0.479-2.661l-0.307-1.716l-12.553-69.648l-0.347-1.234
		c-0.383-0.998-4.144-9.925-16.382-14.832c-15.896-6.368-38.106-2.967-66,10.104c-33.88,15.874-52.273,16.382-61.315,14.531
		c59.71-35.678,180.823-39.111,192.75-39.363c0.046,0,0.088,0.024,0.134,0.024c0.232,0.11,0.501,0,0.762,0
		c42.699,0,140.26,6.516,192.745,32.747c-9.546,1.835-27.691,1.176-60.119-12.636c-28.353-12.066-50.662-14.681-66.315-7.738
		c-12.05,5.34-15.492,14.383-15.845,15.395l-10.359,71.284l-0.269,1.848l-0.369,2.568c-0.02,0.152,0.04,0.301,0.024,0.461
		c-0.413,10.872,5.45,22.706,13.217,28.894c8.259,6.58,24.825,15.678,46.061,22.281l-13.124,76.178l15.922-19.104
		c15.147-18.178,42.042-22.285,84.66-12.864c18.446,4.096,31.294-3.534,37.165-12.006c3.238-4.669,4.761-10.011,4.652-15.257
		c0-0.044,0.024-0.076,0.024-0.12l2.192-72.831c2.416-1.687,4.557-3.59,6.287-5.782c4.124-5.182,5.871-11.361,5.566-18.354
		c0-0.104,0.053-0.204,0.044-0.32L482.299,258.795z M103.215,371.187c-13.251,0-28.473,2.269-45.883,6.761
		c-10.111,2.604-18.913,0.478-23.543-5.727c-3.032-4.071-3.48-8.977-1.172-12.812c4.043-6.736,15.551-9.369,30.777-7.021
		c25.073,3.863,49.418,0.934,70.305-4.816l6.704,32.016C130.221,373.976,117.928,371.187,103.215,371.187z M183.053,309.532
		c-5.386,4.617-22.137,15.469-45.568,23.1c-0.026,0-0.059,0.008-0.088,0.016c-0.495,0.108-0.974,0.252-1.415,0.465
		c-19.829,6.287-44.266,10.167-70.551,6.096c-17.797-2.766-28.793,0.545-35.568,4.824l-3.016-45.909
		c39.662,10.504,110.959-8.399,127.45-13.092c18.56-5.262,31.731-4.477,35.271,2.116c0.293,0.537,0.449,1.149,0.629,1.763
		l0.441,2.437C191.134,297.587,187.645,305.602,183.053,309.532z M113.523,221.962c29.932-14.028,46.33-13.181,54.842-10
		c6.102,2.286,8.59,5.965,9.241,7.111l9.115,50.562c-7.938-2.252-19.43-2.176-36.075,2.561
		c-55.77,15.825-119.802,22.854-134.287,5.675c-1.859-2.208-2.803-5.014-2.929-8.312c0.072-0.369,0.227-0.697,0.239-1.086
		l0.046-3.298c0.579-3.651,1.932-7.751,4.144-12.383c3.406-7.122,8.824-13.458,15.601-19.156
		C42.456,238.944,64.96,244.721,113.523,221.962z M240.433,171.745c-0.078,0-0.15-0.046-0.227-0.046c-0.023,0-0.05,0-0.08,0
		c-7.622,0.084-176.238,2.721-225.948,62.466l1.296-86.789c1.138-4.829,20.384-69.296,221.458-70.825
		c202.411,6.368,224.604,59.073,225.963,62.991l4.392,86.795c-4.292-4.657-9.497-8.896-15.385-12.788
		c-0.156-0.148-0.24-0.349-0.408-0.479c-0.361-0.291-0.789-0.417-1.194-0.613C388.617,173.22,254.569,171.759,240.433,171.745z
		 M303.42,216.877c0.604-1.146,2.881-4.743,8.463-7.213c8.348-3.715,24.786-5.34,55.688,7.818
		c48.506,20.63,70.823,14.631,79.924,9.089c7.482,5.394,13.277,11.431,16.728,18.226c2.745,5.422,4.3,10.183,4.721,14.29
		l0.072,1.311c0,0.032,0.012,0.057,0.02,0.084c0.156,3.835-0.733,7.069-2.757,9.614c-14.535,18.294-79.672,12.251-134.032-1.103
		c-16.804-4.14-28.28-3.803-36.131-1.274L303.42,216.877z M452.6,364.791c-4.399,6.38-13.111,8.832-23.322,6.572
		c-37.021-8.175-63.975-6.772-82.967,4.604l5.559-32.236c21.083,5.014,45.501,7.062,70.438,2.316
		c15.128-2.885,26.726-0.685,31.014,5.911C455.758,355.714,455.481,360.636,452.6,364.791z M455.521,336.486
		c-6.925-4.031-18.025-6.929-35.71-3.555c-26.152,4.997-50.698,1.984-70.747-3.591c-0.445-0.184-0.918-0.32-1.402-0.412
		c-0.024,0-0.045,0-0.068,0c-23.696-6.809-40.84-17.067-46.382-21.476c-4.729-3.764-8.504-11.658-8.228-17.905
		c0.048-0.854,0.152-1.667,0.36-2.449c0.152-0.604,0.293-1.234,0.569-1.783c3.278-6.708,16.418-7.975,35.173-3.366
		c16.651,4.092,88.736,20.482,127.829,8.524L455.521,336.486z"/>
</g>
</svg>