<?xml version="1.0" encoding="iso-8859-1"?>
<!-- Uploaded to: SVG Repo, www.svgrepo.com, Generator: SVG Repo Mixer Tools -->
<!DOCTYPE svg PUBLIC "-//W3C//DTD SVG 1.1//EN" "http://www.w3.org/Graphics/SVG/1.1/DTD/svg11.dtd">
<svg fill="#000000" height="800px" width="800px" version="1.1" id="Capa_1" xmlns="http://www.w3.org/2000/svg" xmlns:xlink="http://www.w3.org/1999/xlink" 
	 viewBox="0 0 284.65 284.65" xml:space="preserve">
<g>
	<path d="M283.742,119.891c1.072-1.527,1.204-3.523,0.343-5.179c-0.86-1.655-2.571-2.693-4.436-2.693h-27.634
		c-1.343,0-2.557,0.536-3.455,1.398c-35.837-13.172-71.211-9.386-105.448-5.709c-34.014,3.652-66.141,7.1-98.154-5.246
		c-3.075-1.187-6.536-0.783-9.258,1.084c-2.719,1.866-4.342,4.948-4.342,8.246v0.227H5c-1.865,0-3.576,1.039-4.436,2.693
		c-0.861,1.655-0.729,3.651,0.343,5.179c8.173,11.648,8.173,27.299,0,38.947c-1.072,1.527-1.204,3.523-0.343,5.179
		c0.86,1.655,2.571,2.693,4.436,2.693h26.358v1.858c0,4.501,3.034,8.47,7.378,9.65c11.493,3.122,23.435,4.64,36.509,4.64
		c24.176,0,48.031-5.279,71.104-10.385c34.016-7.527,66.144-14.637,98.047-5.97c2.985,0.808,6.234,0.171,8.694-1.707
		c1.191-0.911,2.144-2.082,2.816-3.395h23.744c1.865,0,3.576-1.039,4.436-2.693c0.861-1.655,0.729-3.651-0.343-5.179
		C276.684,143.469,276.684,129.951,283.742,119.891z M13.48,156.71c4.734-11.046,4.734-23.645,0-34.691h17.879v34.691H13.48z
		 M247.016,156.852c-34.277-9.313-67.574-1.944-102.83,5.858c-22.545,4.989-45.857,10.147-68.94,10.147
		c-12.177,0-23.262-1.403-33.887-4.29v-6.858v-44.691v-5.227c34.275,13.217,67.571,9.643,102.829,5.858
		c33.701-3.62,68.549-7.362,102.828,5.858c0,0,0,0,0,0v32.893V156.852z M271.288,151.401h-14.272v-27.893v-1.489h14.272
		C267.51,131.423,267.51,141.997,271.288,151.401z"/>
</g>
</svg>