<?xml version="1.0" encoding="iso-8859-1"?>
<!-- Uploaded to: SVG Repo, www.svgrepo.com, Generator: SVG Repo Mixer Tools -->
<!DOCTYPE svg PUBLIC "-//W3C//DTD SVG 1.1//EN" "http://www.w3.org/Graphics/SVG/1.1/DTD/svg11.dtd">
<svg fill="#000000" height="800px" width="800px" version="1.1" id="Capa_1" xmlns="http://www.w3.org/2000/svg" xmlns:xlink="http://www.w3.org/1999/xlink" 
	 viewBox="0 0 285.304 285.304" xml:space="preserve">
<g>
	<path d="M280.304,124.411h-7.05v-7.006c0-2.761-2.239-5-5-5h-19.102v-1.323c0-2.761-2.239-5-5-5h-203c-2.761,0-5,2.239-5,5v1.323
		H17.05c-2.761,0-5,2.239-5,5v7.006H5c-2.761,0-5,2.239-5,5v44.811c0,2.761,2.239,5,5,5h24.101c2.761,0,5-2.239,5-5v-7.007h7.051
		c2.761,0,5-2.239,5-5v-1.323h193v1.323c0,2.761,2.239,5,5,5h7.051v7.007c0,2.761,2.239,5,5,5h24.101c2.761,0,5-2.239,5-5v-44.811
		C285.304,126.65,283.065,124.411,280.304,124.411z M24.101,169.222H10v-34.811h2.05v27.804c0,2.761,2.239,5,5,5h7.051V169.222z
		 M36.152,157.215H22.05v-34.811h14.102v33.488V157.215z M46.152,150.893v-33.488v-1.323h193v1.323v33.488H46.152z M249.152,155.893
		v-33.488h14.102v34.811h-14.102V155.893z M275.304,169.222h-14.101v-2.007h7.051c2.761,0,5-2.239,5-5v-27.804h2.05V169.222z"/>
</g>
</svg>