<?xml version="1.0" encoding="iso-8859-1"?>
<!-- Uploaded to: SVG Repo, www.svgrepo.com, Generator: SVG Repo Mixer Tools -->
<!DOCTYPE svg PUBLIC "-//W3C//DTD SVG 1.1//EN" "http://www.w3.org/Graphics/SVG/1.1/DTD/svg11.dtd">
<svg fill="#000000" height="800px" width="800px" version="1.1" id="Capa_1" xmlns="http://www.w3.org/2000/svg" xmlns:xlink="http://www.w3.org/1999/xlink" 
	 viewBox="0 0 409.998 409.998" xml:space="preserve">
<path d="M391.768,224.999l16.646-33.291c2.325-4.649,2.076-10.172-0.657-14.594c-2.733-4.423-7.561-7.114-12.76-7.114h-78.332
	v-25.001c0-8.284-6.716-15-15-15H108.334c-8.284,0-15,6.716-15,15v25H15c-5.199,0-10.027,2.691-12.76,7.114
	c-2.733,4.422-2.981,9.944-0.656,14.594l16.647,33.292L1.584,258.291c-2.325,4.649-2.077,10.172,0.656,14.594
	c2.733,4.423,7.561,7.114,12.76,7.114h93.334c8.284,0,15-6.716,15-15v-25h163.332v25c0,8.284,6.716,15,15,15h93.332
	c5.199,0,10.027-2.691,12.76-7.114c2.733-4.422,2.981-9.944,0.657-14.594L391.768,224.999z M93.334,249.999H39.271l9.147-18.292
	c2.111-4.223,2.111-9.193,0-13.416l-9.147-18.292h54.063v25V249.999z M123.334,209.999v-25v-25h163.332V185v24.999H123.334z
	 M316.666,249.999v-25V200h54.061l-9.146,18.291c-2.111,4.223-2.111,9.193,0,13.416l9.146,18.292H316.666z"/>
</svg>