<?xml version="1.0" encoding="iso-8859-1"?>
<!-- Uploaded to: SVG Repo, www.svgrepo.com, Generator: SVG Repo Mixer Tools -->
<!DOCTYPE svg PUBLIC "-//W3C//DTD SVG 1.1//EN" "http://www.w3.org/Graphics/SVG/1.1/DTD/svg11.dtd">
<svg fill="#000000" version="1.1" id="Capa_1" xmlns="http://www.w3.org/2000/svg" xmlns:xlink="http://www.w3.org/1999/xlink" 
	 width="800px" height="800px" viewBox="0 0 471.576 471.576"
	 xml:space="preserve">
<g>
	<path d="M143.476,295.784h184.899h16.214c11.529,0,20.883-9.354,20.883-20.883v-49.596h-0.337
		c-1.627,9.935-10.234,17.545-20.698,17.545h-2.517h-14.223H144.159h-14.226h-2.523c-10.463,0-19.073-7.619-20.69-17.545h-0.337
		v49.596c0,11.529,9.35,20.883,20.879,20.883H143.476z"/>
	<path d="M392.854,175.792c-11.529,0-20.883,9.349-20.883,20.878v49.606h0.337c1.627-9.942,10.291-17.553,20.806-17.553h76.971
		l-14.562-26.839l16.054-26.092H392.854z"/>
	<path d="M1.491,228.724h76.966c10.518,0,19.178,7.616,20.803,17.553h0.338V196.67c0-11.529-9.349-20.878-20.88-20.878H0
		l16.054,26.092L1.491,228.724z"/>
</g>
</svg>