<?xml version='1.0' encoding='iso-8859-1'?>
<!DOCTYPE svg PUBLIC '-//W3C//DTD SVG 1.1//EN' 'http://www.w3.org/Graphics/SVG/1.1/DTD/svg11.dtd'>
<!-- Uploaded to: SVG Repo, www.svgrepo.com, Generator: SVG Repo Mixer Tools -->
<svg fill="#000000" height="800px" width="800px" version="1.1" xmlns="http://www.w3.org/2000/svg" viewBox="0 0 304.49 304.49" xmlns:xlink="http://www.w3.org/1999/xlink" enable-background="new 0 0 304.49 304.49">
  <g>
    <path d="m286.73,133.597l16.97-33.949c1.162-2.326 1.037-5.088-0.33-7.299-1.367-2.21-3.78-3.555-6.379-3.555-0.001,0-0.003,0-0.003,0l-84.699,.047c-3.033,0.002-5.767,1.83-6.926,4.632-0.358,0.866-0.524,1.771-0.548,2.673-0.008,0.064-0.022,0.128-0.022,0.195v29.754h-105.095v-29.754c0-0.067-0.015-0.131-0.022-0.195-0.023-0.902-0.189-1.807-0.548-2.673-1.159-2.802-3.893-4.63-6.926-4.632l-84.698-.047c-0.001,0-0.002,0-0.004,0-2.599,0-5.012,1.345-6.379,3.555-1.367,2.211-1.492,4.973-0.33,7.299l16.97,33.949-16.969,33.945c-1.163,2.325-1.038,5.086 0.328,7.297 1.367,2.211 3.78,3.557 6.38,3.557h39.944v29.801c0,4.143 3.357,7.5 7.5,7.5h194.602c4.143,0 7.5-3.357 7.5-7.5v-29.801h39.944c2.6,0 5.013-1.346 6.38-3.557 1.366-2.211 1.491-4.972 0.328-7.297l-16.968-33.945zm-66.938-19.149l11.646,11.646h-11.646v-11.646zm-146.74,11.647l11.646-11.646v11.646h-11.646zm-53.418,37.301l13.22-26.445c1.056-2.111 1.056-4.596 0.001-6.707l-13.218-26.442 54.465,.03-24.461,24.46c-1.357,1.357-2.196,3.232-2.196,5.304v29.801h-27.811zm222.412,37.299h-179.602v-59.602h179.602v59.602zm15-37.3v-29.801c0-2.071-0.839-3.946-2.196-5.304l-24.461-24.46 54.465-.03-13.218,26.442c-1.055,2.111-1.055,4.596 0.001,6.707l13.22,26.445h-27.811z"/>
  </g>
</svg>